<svg xmlns="http://www.w3.org/2000/svg" xmlns:xlink="http://www.w3.org/1999/xlink" viewBox="0 0 926.05 654.69"><defs><style>.cls-1,.cls-41,.cls-53,.cls-60,.cls-61,.cls-67,.cls-68{fill:none;}.cls-2{isolation:isolate;}.cls-3{fill:#fff;}.cls-4{font-size:19.61px;fill:#a57533;letter-spacing:0.1em;}.cls-32,.cls-4,.cls-40,.cls-43,.cls-45,.cls-7{font-family:Montserrat-SemiBold, Montserrat;font-weight:600;}.cls-5{letter-spacing:0.09em;}.cls-6{letter-spacing:0.1em;}.cls-7{font-size:10.32px;fill:#949494;letter-spacing:-0.02em;}.cls-8{letter-spacing:0.03em;}.cls-9{letter-spacing:0.01em;}.cls-10{letter-spacing:0.03em;}.cls-11{letter-spacing:0.02em;}.cls-12{letter-spacing:0.03em;}.cls-13{letter-spacing:0.01em;}.cls-14{letter-spacing:0.11em;}.cls-15{letter-spacing:0.02em;}.cls-16{letter-spacing:0.04em;}.cls-17{letter-spacing:0.02em;}.cls-18{letter-spacing:0.01em;}.cls-19{letter-spacing:0.03em;}.cls-20{letter-spacing:0.02em;}.cls-21{letter-spacing:0.04em;}.cls-22{letter-spacing:0.03em;}.cls-23{letter-spacing:0.02em;}.cls-24{letter-spacing:0.02em;}.cls-25{letter-spacing:-0.03em;}.cls-26{letter-spacing:0.02em;}.cls-27{letter-spacing:0.03em;}.cls-28{letter-spacing:0.03em;}.cls-29{letter-spacing:-0.02em;}.cls-30{letter-spacing:0.04em;}.cls-31{letter-spacing:0.01em;}.cls-32,.cls-40,.cls-43,.cls-45{font-size:9.99px;}.cls-32,.cls-43,.cls-45{fill:#7a7a7a;}.cls-32,.cls-40,.cls-47{letter-spacing:0.2em;}.cls-33,.cls-43{letter-spacing:0.19em;}.cls-34{letter-spacing:0.2em;}.cls-35{letter-spacing:0.19em;}.cls-36{letter-spacing:0.17em;}.cls-37{letter-spacing:0.13em;}.cls-38{letter-spacing:0.19em;}.cls-39{letter-spacing:0.2em;}.cls-40{fill:#606060;}.cls-41{stroke:#232222;stroke-linecap:round;stroke-linejoin:round;}.cls-41,.cls-53,.cls-60,.cls-61,.cls-67,.cls-68{stroke-width:0.78px;}.cls-42{font-size:73.38px;fill:#4d4b4b;font-family:GreatVibes-Regular, Great Vibes;}.cls-44{letter-spacing:0.16em;}.cls-45{letter-spacing:0.21em;}.cls-46{letter-spacing:0.18em;}.cls-48{letter-spacing:0.18em;}.cls-49{letter-spacing:0.19em;}.cls-50{letter-spacing:0.18em;}.cls-51{letter-spacing:0.2em;}.cls-52{letter-spacing:0.21em;}.cls-53{stroke:#7a7a7a;}.cls-53,.cls-60,.cls-61,.cls-67,.cls-68{stroke-miterlimit:10;}.cls-54{clip-path:url(#clip-path);}.cls-55{mix-blend-mode:multiply;}.cls-56{fill:url(#Degradado_sin_nombre_7);}.cls-57{fill:url(#Degradado_sin_nombre_7-2);}.cls-58{fill:url(#Degradado_sin_nombre_7-3);}.cls-59{fill:url(#linear-gradient);}.cls-60{stroke:url(#linear-gradient-2);}.cls-61{stroke:url(#linear-gradient-3);}.cls-62{fill:url(#linear-gradient-4);}.cls-63{fill:url(#linear-gradient-5);}.cls-64{fill:url(#Degradado_sin_nombre_3);}.cls-65{fill:url(#Degradado_sin_nombre_3-2);}.cls-66{fill:url(#Degradado_sin_nombre_6);}.cls-67{stroke:url(#linear-gradient-6);}.cls-68{stroke:url(#linear-gradient-7);}.cls-69{fill:url(#Degradado_sin_nombre_3-3);}.cls-70{fill:url(#linear-gradient-8);}</style><clipPath id="clip-path" transform="translate(47.12 41.73)"><rect class="cls-1" x="115.36" y="-131.43" width="611.99" height="857.85" transform="translate(718.85 -123.86) rotate(90)"/></clipPath><linearGradient id="Degradado_sin_nombre_7" x1="570.93" y1="-22.85" x2="815.49" y2="-22.85" gradientUnits="userSpaceOnUse"><stop offset="0" stop-color="#a6a28d"/><stop offset="1" stop-color="#f3f0de"/></linearGradient><linearGradient id="Degradado_sin_nombre_7-2" x1="570.93" y1="219.43" x2="815.49" y2="219.43" xlink:href="#Degradado_sin_nombre_7"/><linearGradient id="Degradado_sin_nombre_7-3" x1="239.51" y1="287.45" x2="449.29" y2="287.45" gradientTransform="translate(501.58 691.96) rotate(179.66)" xlink:href="#Degradado_sin_nombre_7"/><linearGradient id="linear-gradient" x1="204.03" y1="23.24" x2="-43.06" y2="540.92" gradientUnits="userSpaceOnUse"><stop offset="0" stop-color="#a9703a"/><stop offset="0.14" stop-color="#cc985f"/><stop offset="0.23" stop-color="#e5b479"/><stop offset="0.32" stop-color="#c39b66"/><stop offset="0.39" stop-color="#a78756"/><stop offset="0.54" stop-color="#b2864f"/><stop offset="0.59" stop-color="#b7864b"/><stop offset="0.62" stop-color="#c08e53"/><stop offset="0.72" stop-color="#daa36a"/><stop offset="0.78" stop-color="#e4ab73"/><stop offset="0.83" stop-color="#c99059"/><stop offset="0.9" stop-color="#ae753e"/><stop offset="0.95" stop-color="#9d642e"/><stop offset="0.99" stop-color="#975e28"/></linearGradient><linearGradient id="linear-gradient-2" x1="-36.88" y1="104.96" x2="235.7" y2="104.96" xlink:href="#linear-gradient"/><linearGradient id="linear-gradient-3" x1="-36.43" y1="68.73" x2="235.61" y2="68.73" xlink:href="#linear-gradient"/><linearGradient id="linear-gradient-4" x1="282.27" y1="167.19" x2="-557.08" y2="1114.26" gradientUnits="userSpaceOnUse"><stop offset="0" stop-color="#d39a60"/><stop offset="0.09" stop-color="#e3be88"/><stop offset="0.23" stop-color="#fffbcd"/><stop offset="0.31" stop-color="#eddcab"/><stop offset="0.39" stop-color="#d7b681"/><stop offset="0.53" stop-color="#deb276"/><stop offset="0.59" stop-color="#e2b070"/><stop offset="0.63" stop-color="#e7bb7d"/><stop offset="0.72" stop-color="#f0cf97"/><stop offset="0.78" stop-color="#f4d7a1"/><stop offset="0.78" stop-color="#f3d6a0"/><stop offset="0.84" stop-color="#e2b57a"/><stop offset="0.9" stop-color="#d59d5e"/><stop offset="0.96" stop-color="#cd8e4d"/><stop offset="0.99" stop-color="#ca8947"/></linearGradient><linearGradient id="linear-gradient-5" x1="421.06" y1="31.84" x2="-131.15" y2="773.77" xlink:href="#linear-gradient"/><radialGradient id="Degradado_sin_nombre_3" cx="-1.01" cy="321.68" r="59.15" gradientTransform="matrix(1.54, 0.08, -0.07, 1.59, 32.18, -26.13)" gradientUnits="userSpaceOnUse"><stop offset="0" stop-color="#455058"/><stop offset="1" stop-color="#1e3240"/></radialGradient><radialGradient id="Degradado_sin_nombre_3-2" cx="913.66" cy="608.59" r="175.47" gradientTransform="translate(2201.63 1236.42) rotate(180) scale(1.54 1.59)" xlink:href="#Degradado_sin_nombre_3"/><radialGradient id="Degradado_sin_nombre_6" cx="446.13" cy="289.62" r="151.42" gradientTransform="translate(-8.74 -8.86) scale(1.54 1.59)" gradientUnits="userSpaceOnUse"><stop offset="0" stop-color="#788691"/><stop offset="1" stop-color="#1e3240"/></radialGradient><linearGradient id="linear-gradient-6" x1="649.69" y1="422.78" x2="868.9" y2="422.78" xlink:href="#linear-gradient"/><linearGradient id="linear-gradient-7" x1="728.35" y1="527.37" x2="868.79" y2="527.37" xlink:href="#linear-gradient"/><radialGradient id="Degradado_sin_nombre_3-3" cx="1048.21" cy="715.16" r="170.17" gradientTransform="translate(2201.63 1236.42) rotate(180) scale(1.54 1.59)" xlink:href="#Degradado_sin_nombre_3"/><linearGradient id="linear-gradient-8" x1="624.11" y1="673.71" x2="930.18" y2="673.71" gradientTransform="matrix(-0.96, 0.3, -0.3, -0.96, 1608.37, 503.14)" xlink:href="#linear-gradient"/></defs><title>5369619</title><g class="cls-2"><g id="PRINT"><rect class="cls-3" x="115.87" y="-130.13" width="610.97" height="856.85" transform="translate(766.77 -81.32) rotate(90)"/><text class="cls-4" transform="translate(269.19 211.98) scale(1.02 1)">OF SU<tspan class="cls-5" x="72.01" y="0">P</tspan><tspan class="cls-6" x="88.01" y="0">ER HOME SHERE HOLDER</tspan></text><text class="cls-7" transform="translate(254.35 424.61) scale(0.97 1)">W<tspan class="cls-8" x="11.55" y="0">e </tspan><tspan class="cls-9" x="21.43" y="0">w</tspan><tspan class="cls-10" x="31.07" y="0">el</tspan><tspan class="cls-11" x="41.09" y="0">c</tspan><tspan class="cls-10" x="47.31" y="0">o</tspan><tspan class="cls-12" x="54.28" y="0">m</tspan><tspan class="cls-10" x="65.51" y="0">e </tspan><tspan class="cls-13" x="75.39" y="0">y</tspan><tspan class="cls-10" x="81.51" y="0">ou </tspan><tspan class="cls-14" x="98.97" y="0">f</tspan><tspan class="cls-15" x="103.92" y="0">r</tspan><tspan class="cls-10" x="108.46" y="0">om t</tspan><tspan class="cls-16" x="134.44" y="0">h</tspan><tspan class="cls-8" x="141.87" y="0">e bo</tspan><tspan class="cls-17" x="166.11" y="0">t</tspan><tspan class="cls-18" x="170.66" y="0">t</tspan><tspan class="cls-10" x="175.16" y="0">om of our </tspan><tspan class="cls-19" x="232.81" y="0">h</tspan><tspan class="cls-20" x="240.23" y="0">e</tspan><tspan class="cls-8" x="246.81" y="0">a</tspan><tspan class="cls-21" x="253.38" y="0">r</tspan><tspan class="cls-22" x="258.18" y="0">ts </tspan><tspan class="cls-18" x="271.65" y="0">t</tspan><tspan class="cls-22" x="276.15" y="0">o be our </tspan><tspan class="cls-23" x="325.65" y="0">p</tspan><tspan class="cls-22" x="332.97" y="0">a</tspan><tspan class="cls-21" x="339.54" y="0">r</tspan><tspan class="cls-8" x="344.34" y="0">t</tspan><tspan class="cls-16" x="349.02" y="0">n</tspan><tspan class="cls-8" x="356.45" y="0">e</tspan><tspan class="cls-24" x="363.18" y="0">r</tspan><tspan class="cls-8" x="367.72" y="0">. </tspan><tspan class="cls-25" x="373.71" y="0">W</tspan><tspan class="cls-8" x="385.25" y="0">e </tspan><tspan class="cls-26" x="395.14" y="0">c</tspan><tspan class="cls-8" x="401.36" y="0">o</tspan><tspan class="cls-16" x="408.33" y="0">m</tspan><tspan class="cls-8" x="419.56" y="0">e </tspan><tspan class="cls-18" x="429.44" y="0">t</tspan><tspan class="cls-22" x="433.94" y="0">o </tspan><tspan class="cls-10"><tspan x="-2.11" y="15.81">maintain a li</tspan><tspan class="cls-26" x="67.71" y="15.81">f</tspan><tspan x="71.75" y="15.81">elo</tspan><tspan class="cls-12" x="88.73" y="15.81">n</tspan><tspan class="cls-8" x="96.16" y="15.81">g </tspan><tspan class="cls-14" x="106.79" y="15.81">f</tspan><tspan class="cls-27" x="111.73" y="15.81">r</tspan><tspan class="cls-8" x="116.32" y="15.81">ie</tspan><tspan class="cls-12" x="126.34" y="15.81">n</tspan><tspan class="cls-8" x="133.78" y="15.81">dly </tspan><tspan class="cls-15" x="153.9" y="15.81">r</tspan><tspan class="cls-8" x="158.44" y="15.81">elationship with </tspan><tspan class="cls-13" x="252.5" y="15.81">e</tspan><tspan class="cls-16" x="259.07" y="15.81">a</tspan><tspan class="cls-28" x="265.7" y="15.81">c</tspan><tspan class="cls-8" x="271.95" y="15.81">h ot</tspan><tspan class="cls-16" x="294.14" y="15.81">h</tspan><tspan class="cls-8" x="301.57" y="15.81">e</tspan><tspan class="cls-15" x="308.3" y="15.81">r</tspan><tspan class="cls-8" x="312.84" y="15.81">. </tspan><tspan class="cls-29" x="318.82" y="15.81">W</tspan><tspan class="cls-8" x="330.37" y="15.81">e wish </tspan><tspan class="cls-24" x="369.5" y="15.81">e</tspan><tspan class="cls-13" x="376.13" y="15.81">v</tspan><tspan class="cls-22" x="382.25" y="15.81">e</tspan><tspan class="cls-21" x="388.97" y="15.81">r</tspan><tspan class="cls-13" x="393.77" y="15.81">y</tspan><tspan class="cls-8" x="399.89" y="15.81">o</tspan><tspan class="cls-16" x="406.86" y="15.81">n</tspan><tspan class="cls-8" x="414.29" y="15.81">e t</tspan><tspan class="cls-19" x="428.86" y="15.81">h</tspan><tspan class="cls-8" x="436.29" y="15.81">e </tspan><tspan x="183.7" y="31.63">bes</tspan><tspan class="cls-30" x="203.44" y="31.63">t</tspan><tspan x="208.23" y="31.63">. Than</tspan><tspan class="cls-31" x="242.07" y="31.63">k</tspan><tspan class="cls-22" x="248.76" y="31.63">s.</tspan></tspan></text><text class="cls-32" transform="translate(296.92 284.57) scale(1.05 1)">THIS CE<tspan class="cls-33" x="54.26" y="0">R</tspan><tspan class="cls-34" x="63.45" y="0">TIFI</tspan><tspan class="cls-35" x="90.18" y="0">C</tspan><tspan class="cls-36" x="99.29" y="0">A</tspan><tspan x="108.42" y="0">TE IS </tspan><tspan class="cls-33" x="148.08" y="0">P</tspan><tspan class="cls-34" x="157.23" y="0">ROUD</tspan><tspan class="cls-37" x="197.06" y="0">L</tspan><tspan x="204.31" y="0">Y </tspan><tspan class="cls-38" x="217.66" y="0">P</tspan><tspan class="cls-34" x="226.81" y="0">RESENTED </tspan><tspan class="cls-33" x="303.54" y="0">T</tspan><tspan class="cls-39" x="311.45" y="0">O:</tspan></text><text class="cls-40" transform="translate(296.92 284.57) scale(1.05 1)">THIS CE<tspan class="cls-33" x="54.26" y="0">R</tspan><tspan class="cls-34" x="63.45" y="0">TIFI</tspan><tspan class="cls-35" x="90.18" y="0">C</tspan><tspan class="cls-36" x="99.29" y="0">A</tspan><tspan x="108.42" y="0">TE IS </tspan><tspan class="cls-33" x="148.08" y="0">P</tspan><tspan class="cls-34" x="157.23" y="0">ROUD</tspan><tspan class="cls-37" x="197.06" y="0">L</tspan><tspan x="204.31" y="0">Y </tspan><tspan class="cls-38" x="217.66" y="0">P</tspan><tspan class="cls-34" x="226.81" y="0">RESENTED </tspan><tspan class="cls-33" x="303.54" y="0">T</tspan><tspan class="cls-39" x="311.45" y="0">O:</tspan></text><line class="cls-41" x1="270.77" y1="370.27" x2="666.41" y2="370.27"/><text class="cls-42" transform="translate(358.11 165.62) scale(0.97 1)">Certificate</text><text class="cls-43" transform="translate(600.31 567.27) scale(1.05 1)">D<tspan class="cls-44" x="10.15" y="0">A</tspan><tspan class="cls-34" x="19.27" y="0">TE</tspan></text><text class="cls-45" transform="translate(240.03 567.27) scale(1.05 1)">C<tspan class="cls-46" x="9.39" y="0">.O.</tspan><tspan class="cls-47" x="28.06" y="0">O (N</tspan><tspan class="cls-38" x="58.77" y="0">e</tspan><tspan class="cls-48" x="66.88" y="0">w</tspan><tspan class="cls-33" x="77.88" y="0">a</tspan><tspan class="cls-49" x="85.84" y="0">y</tspan><tspan class="cls-34" x="93.54" y="0">s In</tspan><tspan class="cls-50" x="119.45" y="0">t</tspan><tspan class="cls-34" x="125.51" y="0">e</tspan><tspan class="cls-51" x="133.72" y="0">r</tspan><tspan class="cls-52" x="139.86" y="0">n</tspan><tspan class="cls-34" x="148.74" y="0">etional)</tspan></text><line class="cls-53" x1="242.24" y1="549.35" x2="449.98" y2="549.35"/><line class="cls-53" x1="506.2" y1="549.35" x2="713.94" y2="549.35"/><g class="cls-54"><g class="cls-55"><path class="cls-56" d="M570.93-18.79,582.3-24.7c-.56-.73-1.11-1.47-1.66-2.21Z" transform="translate(47.12 41.73)"/></g><g class="cls-55"><path class="cls-57" d="M790.38-41.73H615.07l-32.77,17c54,72,103.09,149.19,132.46,234.94,29.66,86.63,38,183.19,9.85,270.36,68.81-124.22,100.11-270,88.51-412.51C810.08,30.72,803.88-7.14,790.38-41.73Z" transform="translate(47.12 41.73)"/></g><g class="cls-55"><path class="cls-58" d="M62.54,613H237.35c-40.83-55.89-77.26-115.58-100.17-181.25-25.87-74.16-33.5-157-9.77-231.89C69,306.73,42.84,432,53.49,554.16A405.15,405.15,0,0,0,62.54,613Z" transform="translate(47.12 41.73)"/></g><path class="cls-59" d="M229.81,67.93c-95.39,30.51-177.34,99.55-231.3,186a519.23,519.23,0,0,0-45.63,93V613h68.6C12,554.87,8.31,496.37,16.19,438.14,35.8,293.16,125.5,167.53,229.81,67.93Z" transform="translate(47.12 41.73)"/><path class="cls-60" d="M235.55,14.85C195.4,31,156.12,49.62,118.58,71.47a683.85,683.85,0,0,0-103.8,73.69,609.16,609.16,0,0,0-51.37,50" transform="translate(47.12 41.73)"/><path class="cls-61" d="M-36.2,122.69c80.84-59.36,175-94.29,271.75-107.84" transform="translate(47.12 41.73)"/><path class="cls-62" d="M-33.09,613H67.13a481.33,481.33,0,0,1-21-137.45c-1.06-146.37,54.2-291,183.83-408.07C139.89,111.86,68.55,192.4,27.37,286s-53.11,199.45-41,301.42L-42,593.25C-39.23,599.92-36.24,606.48-33.09,613Z" transform="translate(47.12 41.73)"/><path class="cls-63" d="M78.63,613H135.7C89.15,517,70.79,403.57,92.2,276,49.25,368.72,43,477.47,68.07,576.89Q72.68,595.15,78.63,613Z" transform="translate(47.12 41.73)"/><path class="cls-64" d="M27,613C7.74,534.51,5.87,447.89,26,354.6c-40.82,78.33-54.77,170-44.53,258.35Z" transform="translate(47.12 41.73)"/><path class="cls-65" d="M878.93-12.13a361.25,361.25,0,0,0-30.27-29.6H802c24.53,96.56,44.29,195.63,31,294C814,392.64,729.26,514.91,629.18,613h16.4c84.16-34,156.15-98.1,205.1-176.52a506,506,0,0,0,28.25-51.88Z" transform="translate(47.12 41.73)"/><path class="cls-66" d="M878.93,99.63V70.76A363.13,363.13,0,0,0,788.77-41.73H728.88c47.76,80.47,73.52,165.64,74.17,256.59,1,142.24-51.13,282.81-173,398.09h8C719.22,567,783.54,491.34,821.81,404.37c41.18-93.59,53.11-199.45,41-301.42Z" transform="translate(47.12 41.73)"/><path class="cls-67" d="M649.94,601.93c41.52-34.67,78.08-75.42,109.12-120.17,31.7-45.7,57.69-95.46,78.52-147.31a879,879,0,0,0,30.94-91" transform="translate(47.12 41.73)"/><path class="cls-68" d="M868.47,452.45A685.93,685.93,0,0,1,763.1,573.29q-16.76,15.09-34.51,28.92" transform="translate(47.12 41.73)"/><path class="cls-69" d="M713.78-41.73H634q8.6,9.65,16.77,19.85C741,91.33,786.32,239.55,757,414.39c42.95-92.75,49.26-201.5,24.14-300.92C767.19,58.33,743.94,6.08,713.78-41.73Z" transform="translate(47.12 41.73)"/><path class="cls-70" d="M741.77-41.73c37.89,51.64,64,115.59,73.65,192,9.28-65.43-4-133.24-33.66-192Z" transform="translate(47.12 41.73)"/></g></g></g></svg>